<?xml version="1.0" standalone="no"?>
<!DOCTYPE svg PUBLIC "-//W3C//DTD SVG 20010904//EN"
 "http://www.w3.org/TR/2001/REC-SVG-20010904/DTD/svg10.dtd">
<svg version="1.0" xmlns="http://www.w3.org/2000/svg"
 width="163.000000pt" height="163.000000pt" viewBox="0 0 163.000000 163.000000"
 preserveAspectRatio="xMidYMid meet">
<metadata>
Created by potrace 1.14, written by Peter Selinger 2001-2017
</metadata>
<g transform="translate(0.000000,163.000000) scale(0.100000,-0.100000)"
fill="#000000" stroke="none">
<path d="M6 1571 c-1 -3 -2 -346 -2 -761 1 -711 2 -755 18 -758 14 -3 18 3 19
25 1 35 1 1474 0 1489 -1 11 -30 15 -35 5z"/>
<path d="M828 1575 c-2 -1 -27 -6 -56 -9 -274 -33 -528 -277 -578 -556 -8 -46
-13 -178 -7 -200 4 -16 31 -17 346 -16 l342 1 0 383 c0 211 -2 387 -5 390 -5
7 -36 12 -42 7z"/>
<path d="M1514 1564 c-207 -42 -355 -137 -459 -294 -91 -138 -125 -267 -116
-446 l1 -32 343 2 342 1 1 388 c1 213 -2 387 -5 388 -37 5 -56 4 -107 -7z"/>
<path d="M1211 734 c-279 -57 -370 -402 -157 -597 17 -15 55 -40 86 -55 47
-23 68 -27 140 -27 76 0 93 4 152 33 235 115 262 445 48 591 -87 59 -167 75
-269 55z"/>
<path d="M527 400 c-185 -186 -337 -340 -337 -343 0 -2 153 -5 340 -4 242 0
340 3 341 11 4 36 3 668 -1 671 -3 2 -157 -149 -343 -335z"/>
</g>
</svg>
